<svg xmlns="http://www.w3.org/2000/svg" viewBox="0 0 640 420" role="img" aria-label="Analytics chart illustration">
  <defs>
    <linearGradient id="chartBg" x1="0" x2="1" y1="0" y2="1">
      <stop offset="0" stop-color="#f8fbff"/>
      <stop offset="1" stop-color="#eff4ff"/>
    </linearGradient>
  </defs>
  <rect width="640" height="420" rx="28" fill="url(#chartBg)"/>
  <rect x="82" y="92" width="476" height="244" rx="18" fill="#ffffff" stroke="#dae4f6" stroke-width="3"/>
  <path d="M128 292h380" stroke="#e6ecf8" stroke-width="3"/>
  <path d="M128 252h380" stroke="#edf2fb" stroke-width="3"/>
  <path d="M128 212h380" stroke="#edf2fb" stroke-width="3"/>
  <path d="M128 172h380" stroke="#edf2fb" stroke-width="3"/>
  <rect x="154" y="224" width="40" height="68" rx="8" fill="#87a8d8"/>
  <rect x="214" y="200" width="40" height="92" rx="8" fill="#5f88c5"/>
  <rect x="274" y="166" width="40" height="126" rx="8" fill="#3b6db2"/>
  <rect x="334" y="188" width="40" height="104" rx="8" fill="#5f88c5"/>
  <rect x="394" y="146" width="40" height="146" rx="8" fill="#0a2a57"/>
  <rect x="454" y="174" width="40" height="118" rx="8" fill="#f2a500"/>
  <path d="M166 142l68-24 62 14 78-40 86 22" fill="none" stroke="#f2a500" stroke-width="6" stroke-linecap="round" stroke-linejoin="round"/>
  <circle cx="166" cy="142" r="7" fill="#f2a500"/>
  <circle cx="234" cy="118" r="7" fill="#f2a500"/>
  <circle cx="296" cy="132" r="7" fill="#f2a500"/>
  <circle cx="374" cy="92" r="7" fill="#f2a500"/>
  <circle cx="460" cy="114" r="7" fill="#f2a500"/>
</svg>
